# Blender v2.78 (sub 0) OBJ File: 'eclair.blend'
# www.blender.org
mtllib eclair.mtl
o Cube
v 0.094024 2.893678 -0.242523
v 0.094024 2.595601 -0.242523
v 0.094024 2.893678 0.242523
v 0.094024 2.704682 0.242523
v -0.094024 2.893678 -0.242523
v -0.094024 2.595601 -0.242523
v -0.094024 2.893678 0.242523
v -0.094024 2.704682 0.242523
v -0.094024 2.893678 -1.242523
v 0.094024 2.893678 -1.242523
v 0.094024 2.595601 -1.242523
v -0.094024 2.704682 -1.242523
v -0.094024 2.704682 1.242523
v 0.094024 2.704682 1.242523
v 0.094024 2.977093 1.242523
v -0.094024 2.977093 1.242523
v 0.094024 2.977093 -1.042523
v -0.094024 2.893678 -1.042523
v 0.094024 2.595601 -1.042523
v -0.094024 2.704682 -1.042523
v 0.094024 2.595601 1.042523
v -0.094024 2.704682 1.042523
v -0.094024 2.893678 1.042523
v 0.094024 2.977093 1.042523
v -0.094024 2.977093 -1.242523
v 0.094024 2.977093 -1.242523
v 0.094024 2.977093 -1.042523
v -0.094024 2.977093 -1.042523
v -0.094024 2.893678 -0.242523
v -0.094024 2.704682 -0.242523
v -0.094024 2.893678 0.242523
v -0.094024 2.704682 0.242523
v 0.094024 2.977093 -0.242523
v 0.094024 2.595601 -0.242523
v 0.094024 2.977093 0.242523
v 0.094024 2.595601 0.242523
v 0.094024 2.977093 -1.242523
v -0.094024 2.977093 -1.242523
v -0.094024 2.595601 -1.242523
v 0.094024 2.595601 -1.242523
v 0.094024 2.595601 1.242523
v -0.094024 2.595601 1.242523
v -0.094024 2.893678 1.242523
v 0.094024 2.977093 1.242523
v -0.094024 2.893678 -1.042523
v 0.094024 2.977093 -1.042523
v -0.094024 2.704682 -0.239214
v 0.094024 2.595601 -0.239214
v -0.094024 2.704682 1.042523
v 0.094024 2.595601 1.042523
v 0.094024 2.977093 0.265597
v -0.094024 2.893678 0.265596
v 0.094024 2.977093 -1.242523
v -0.094024 2.893678 -1.242523
v -0.094024 2.893678 -1.042523
v 0.094024 2.977093 -1.042523
v -0.094024 5.893678 -0.956477
v 0.094024 5.893678 -0.956477
v -0.094024 5.893678 -0.957477
v 0.094024 5.893678 -0.957477
v -0.094024 -0.295318 0.956477
v 0.094024 -0.295318 0.956477
v -0.094024 -0.295318 0.957477
v 0.094024 -0.295318 0.957477
vn -0.7264 -0.6850 0.0546
vn 0.6317 -0.7727 0.0616
vn 0.7087 -0.7032 0.0560
vn -0.7801 -0.6237 0.0497
vn -0.9319 0.2825 0.2275
vn 0.8679 0.3331 0.3684
vn 0.5773 0.5773 0.5773
vn -0.5773 0.5773 0.5773
vn 0.6835 0.7297 0.0188
vn -0.7465 0.6652 0.0171
vn -0.7465 0.6652 -0.0171
vn 0.6835 0.7297 -0.0188
vn -0.8021 -0.5943 0.0592
vn 0.5419 -0.8371 0.0746
vn 0.5577 -0.4942 0.6668
vn -0.6311 -0.4619 0.6231
vn -0.6865 -0.3954 -0.6101
vn -0.7071 0.0000 -0.7071
vn 0.7071 0.0000 -0.7071
vn 0.4153 -0.7210 -0.5546
vn 0.5559 -0.8307 -0.0298
vn -0.8481 -0.5295 -0.0186
vn 0.5340 0.6484 0.5426
vn -0.6101 0.6076 0.5084
vn -0.8207 0.5668 -0.0711
vn 0.6181 0.7794 -0.1018
vn 0.5773 0.5773 -0.5773
vn -0.5773 0.5773 -0.5773
vn 1.0000 0.0000 0.0000
vn 0.4991 -0.8665 0.0000
vn -0.8665 -0.4991 0.0000
vn -1.0000 0.0000 0.0000
vn 0.5870 0.3365 0.7363
vn -0.1813 0.4088 0.8944
vn 0.4018 0.6178 0.6759
vn -0.7302 0.4609 0.5043
vn -0.8383 0.5452 0.0000
vn 0.5452 0.8383 0.0000
vn 0.5613 -0.8195 -0.1157
vn 0.5225 -0.6646 0.5341
vn -0.6239 -0.6091 0.4895
vn -0.8526 -0.5182 -0.0672
vn 0.6418 -0.2450 -0.7267
vn -0.6418 -0.2450 -0.7267
vn -0.4969 0.8678 0.0000
vn 0.7071 0.0000 0.7071
vn -0.5961 0.6985 0.3958
vn 0.8050 0.4434 0.3942
vn -0.5040 -0.4854 0.7143
vn 0.6106 -0.4451 0.6550
vn 0.6133 0.3069 0.7277
vn -0.6574 0.1801 0.7317
vn 0.9234 0.1378 -0.3583
vn -0.9676 0.1690 -0.1874
vn 0.5840 0.7260 0.3630
vn -0.6529 0.6774 0.3387
vn 0.4522 0.6953 0.5585
vn -0.5163 0.4779 -0.7106
vn 0.5997 0.4465 -0.6640
vn -0.6195 -0.7033 -0.3487
vn 0.6195 -0.7033 -0.3487
usemtl Material
s 1
f 6//1 2//2 4//3 8//4
f 18//5 17//6 27//7 28//8
f 1//9 5//10 7//11 3//12
f 2//2 1//9 3//12 4//3
f 22//13 21//14 14//15 13//16
f 8//4 7//11 5//10 6//1
f 12//17 9//18 10//19 11//20
f 17//6 19//21 11//20 10//19
f 20//22 18//5 9//18 12//17
f 19//21 20//22 12//17 11//20
f 14//15 15//23 16//24 13//16
f 23//25 22//13 13//16 16//24
f 21//14 24//26 15//23 14//15
f 24//26 23//25 16//24 15//23
f 2//2 6//1 20//22 19//21
f 6//1 5//10 18//5 20//22
f 1//9 2//2 19//21 17//6
f 5//10 1//9 17//6 18//5
f 3//12 7//11 23//25 24//26
f 4//3 3//12 24//26 21//14
f 7//11 8//4 22//13 23//25
f 8//4 4//3 21//14 22//13
f 28//8 27//7 26//27 25//28
f 9//18 18//5 28//8 25//28
f 17//6 10//19 26//27 27//7
f 10//19 9//18 25//28 26//27
f 34//29 36//30 32//31 30//32
f 46//33 56//34 55//35 45//36
f 29//37 31//37 35//38 33//38
f 30//32 32//31 31//37 29//37
f 50//39 41//40 42//41 49//42
f 36//30 34//29 33//38 35//38
f 40//43 39//44 38//45 37//46
f 45//36 38//45 39//44 47//47
f 48//48 40//43 37//46 46//33
f 48//48 47//47 63//49 64//50
f 42//41 41//40 44//51 43//52
f 51//53 44//51 41//40 50//39
f 49//42 42//41 43//52 52//54
f 43//52 44//51 58//55 57//56
f 30//32 47//47 48//48 34//29
f 34//29 48//48 46//33 33//38
f 29//37 45//36 47//47 30//32
f 33//38 46//33 45//36 29//37
f 31//37 52//54 51//53 35//38
f 32//31 49//42 52//54 31//37
f 35//38 51//53 50//39 36//30
f 36//30 50//39 49//42 32//31
f 56//34 53//34 54//57 55//35
f 37//46 53//34 56//34 46//33
f 45//36 55//35 54//57 38//45
f 38//45 54//57 53//34 37//46
f 59//58 57//56 58//55 60//59
f 51//53 52//54 59//58 60//59
f 52//54 43//52 57//56 59//58
f 44//51 51//53 60//59 58//55
f 63//49 61//60 62//61 64//50
f 40//43 48//48 64//50 62//61
f 47//47 39//44 61//60 63//49
f 39//44 40//43 62//61 61//60
