# Blender v2.78 (sub 0) OBJ File: 'exit.blend'
# www.blender.org
mtllib exit.mtl
o Text_Mesh
v 1.589475 1.986335 -0.496171
v 0.723570 1.986335 -0.496171
v 0.723570 1.986335 -0.362487
v 1.082085 1.986335 -0.362487
v 1.082085 1.986335 0.539877
v 1.230960 1.986335 0.539877
v 1.230960 1.986335 -0.362487
v 1.589475 1.986335 -0.362487
v 0.582291 1.986335 -0.496171
v 0.433416 1.986335 -0.496171
v 0.433416 1.986335 0.539877
v 0.582291 1.986335 0.539877
v 0.286061 1.986335 -0.496171
v 0.106803 1.986335 -0.496171
v -0.216771 1.986335 -0.101197
v -0.541865 1.986335 -0.496171
v -0.722642 1.986335 -0.496171
v -0.307919 1.986335 0.003623
v -0.754544 1.986335 0.539877
v -0.573767 1.986335 0.539877
v -0.216771 1.986335 0.111482
v 0.135667 1.986335 0.539877
v 0.314924 1.986335 0.539877
v -0.127143 1.986335 0.003623
v -0.815309 1.986335 -0.496171
v -1.403212 1.986335 -0.496171
v -1.403212 1.986335 0.539877
v -0.801637 1.986335 0.539877
v -0.801637 1.986335 0.406193
v -1.254338 1.986335 0.406193
v -1.254338 1.986335 0.084137
v -0.830500 1.986335 0.084137
v -0.830500 1.986335 -0.049546
v -1.254338 1.986335 -0.049546
v -1.254338 1.986335 -0.362487
v -0.815309 1.986335 -0.362487
vn 0.0000 1.0000 0.0000
vn 0.0000 0.0000 1.0000
usemtl Material.001
s off
f 3//1 1//1 2//1
f 3//1 8//1 1//1
f 4//2 8//2 3//2
f 5//1 7//1 4//1
f 7//2 8//2 4//2
f 5//1 6//1 7//1
f 11//1 9//1 10//1
f 11//1 12//1 9//1
f 18//1 16//1 17//1
f 18//1 15//1 16//1
f 15//1 13//1 14//1
f 15//1 24//1 13//1
f 18//1 24//1 15//1
f 19//1 24//1 18//1
f 19//1 21//1 24//1
f 21//1 23//1 24//1
f 19//1 20//1 21//1
f 22//1 23//1 21//1
f 27//1 35//1 26//1
f 35//1 25//1 26//1
f 35//1 36//1 25//1
f 27//1 34//1 35//1
f 27//1 31//1 34//1
f 31//1 33//1 34//1
f 31//1 32//1 33//1
f 27//1 30//1 31//1
f 27//1 29//1 30//1
f 27//1 28//1 29//1
o Cube
v 1.980400 -1.980400 -1.980400
v 1.980400 -1.980400 1.980400
v -1.980400 -1.980400 1.980400
v -1.980399 -1.980400 -1.980401
v 1.980401 1.980400 -1.980399
v 1.980399 1.980400 1.980401
v -1.980401 1.980400 1.980399
v -1.980400 1.980400 -1.980400
vn 0.0000 -1.0000 -0.0000
vn 0.0000 1.0000 0.0000
vn 1.0000 -0.0000 0.0000
vn -0.0000 -0.0000 1.0000
vn -1.0000 -0.0000 -0.0000
vn 0.0000 0.0000 -1.0000
usemtl Material
s off
f 37//3 38//3 39//3 40//3
f 41//4 44//4 43//4 42//4
f 37//5 41//5 42//5 38//5
f 38//6 42//6 43//6 39//6
f 39//7 43//7 44//7 40//7
f 41//8 37//8 40//8 44//8
